<svg width="15" height="14" viewBox="0 0 15 14" fill="none" xmlns="http://www.w3.org/2000/svg">
<mask id="path-1-inside-1_20_31048" fill="white">
<path fill-rule="evenodd" clip-rule="evenodd" d="M3.5 1.5C3.5 2.32843 2.82843 3 2 3C1.17157 3 0.5 2.32843 0.5 1.5C0.5 0.671573 1.17157 0 2 0C2.82843 0 3.5 0.671573 3.5 1.5ZM5.25 0.75H13.75C14.164 0.75 14.5 1.086 14.5 1.5C14.5 1.914 14.164 2.25 13.75 2.25H5.25C4.836 2.25 4.5 1.914 4.5 1.5C4.5 1.086 4.836 0.75 5.25 0.75ZM2 8.5C2.82843 8.5 3.5 7.82843 3.5 7C3.5 6.17157 2.82843 5.5 2 5.5C1.17157 5.5 0.5 6.17157 0.5 7C0.5 7.82843 1.17157 8.5 2 8.5ZM5.25 6.25H13.75C14.164 6.25 14.5 6.586 14.5 7C14.5 7.414 14.164 7.75 13.75 7.75H5.25C4.836 7.75 4.5 7.414 4.5 7C4.5 6.586 4.836 6.25 5.25 6.25ZM2 14C2.82843 14 3.5 13.3284 3.5 12.5C3.5 11.6716 2.82843 11 2 11C1.17157 11 0.5 11.6716 0.5 12.5C0.5 13.3284 1.17157 14 2 14ZM5.25 11.75H13.75C14.164 11.75 14.5 12.086 14.5 12.5C14.5 12.914 14.164 13.25 13.75 13.25H5.25C4.836 13.25 4.5 12.914 4.5 12.5C4.5 12.086 4.836 11.75 5.25 11.75Z"/>
</mask>
<path d="M2 4C3.38071 4 4.5 2.88071 4.5 1.5H2.5C2.5 1.77614 2.27614 2 2 2V4ZM-0.5 1.5C-0.5 2.88071 0.619288 4 2 4V2C1.72386 2 1.5 1.77614 1.5 1.5H-0.5ZM2 -1C0.619288 -1 -0.5 0.119288 -0.5 1.5H1.5C1.5 1.22386 1.72386 1 2 1V-1ZM4.5 1.5C4.5 0.119288 3.38071 -1 2 -1V1C2.27614 1 2.5 1.22386 2.5 1.5H4.5ZM13.75 -0.25H5.25V1.75H13.75V-0.25ZM15.5 1.5C15.5 0.533716 14.7163 -0.25 13.75 -0.25V1.75C13.6117 1.75 13.5 1.63828 13.5 1.5H15.5ZM13.75 3.25C14.7163 3.25 15.5 2.46628 15.5 1.5H13.5C13.5 1.36172 13.6117 1.25 13.75 1.25V3.25ZM5.25 3.25H13.75V1.25H5.25V3.25ZM3.5 1.5C3.5 2.46628 4.28372 3.25 5.25 3.25V1.25C5.38828 1.25 5.5 1.36172 5.5 1.5H3.5ZM5.25 -0.25C4.28372 -0.25 3.5 0.533715 3.5 1.5H5.5C5.5 1.63828 5.38828 1.75 5.25 1.75V-0.25ZM2.5 7C2.5 7.27614 2.27614 7.5 2 7.5V9.5C3.38071 9.5 4.5 8.38071 4.5 7H2.5ZM2 6.5C2.27614 6.5 2.5 6.72386 2.5 7H4.5C4.5 5.61929 3.38071 4.5 2 4.5V6.5ZM1.5 7C1.5 6.72386 1.72386 6.5 2 6.5V4.5C0.619288 4.5 -0.5 5.61929 -0.5 7H1.5ZM2 7.5C1.72386 7.5 1.5 7.27614 1.5 7H-0.5C-0.5 8.38071 0.619288 9.5 2 9.5V7.5ZM13.75 5.25H5.25V7.25H13.75V5.25ZM15.5 7C15.5 6.03372 14.7163 5.25 13.75 5.25V7.25C13.6117 7.25 13.5 7.13828 13.5 7H15.5ZM13.75 8.75C14.7163 8.75 15.5 7.96628 15.5 7H13.5C13.5 6.86171 13.6117 6.75 13.75 6.75V8.75ZM5.25 8.75H13.75V6.75H5.25V8.75ZM3.5 7C3.5 7.96628 4.28372 8.75 5.25 8.75V6.75C5.38828 6.75 5.5 6.86171 5.5 7H3.5ZM5.25 5.25C4.28372 5.25 3.5 6.03372 3.5 7H5.5C5.5 7.13828 5.38828 7.25 5.25 7.25V5.25ZM2.5 12.5C2.5 12.7761 2.27614 13 2 13V15C3.38071 15 4.5 13.8807 4.5 12.5H2.5ZM2 12C2.27614 12 2.5 12.2239 2.5 12.5H4.5C4.5 11.1193 3.38071 10 2 10V12ZM1.5 12.5C1.5 12.2239 1.72386 12 2 12V10C0.619288 10 -0.5 11.1193 -0.5 12.5H1.5ZM2 13C1.72386 13 1.5 12.7761 1.5 12.5H-0.5C-0.5 13.8807 0.619288 15 2 15V13ZM13.75 10.75H5.25V12.75H13.75V10.75ZM15.5 12.5C15.5 11.5337 14.7163 10.75 13.75 10.75V12.75C13.6117 12.75 13.5 12.6383 13.5 12.5H15.5ZM13.75 14.25C14.7163 14.25 15.5 13.4663 15.5 12.5H13.5C13.5 12.3617 13.6117 12.25 13.75 12.25V14.25ZM5.25 14.25H13.75V12.25H5.25V14.25ZM3.5 12.5C3.5 13.4663 4.28371 14.25 5.25 14.25V12.25C5.38829 12.25 5.5 12.3617 5.5 12.5H3.5ZM5.25 10.75C4.28371 10.75 3.5 11.5337 3.5 12.5H5.5C5.5 12.6383 5.38829 12.75 5.25 12.75V10.75Z" fill="#838691" mask="url(#path-1-inside-1_20_31048)"/>
</svg>
